<?xml version="1.0" encoding="utf-8" standalone="no"?>
<!DOCTYPE svg PUBLIC "-//W3C//DTD SVG 1.1//EN"
  "http://www.w3.org/Graphics/SVG/1.1/DTD/svg11.dtd">
<!-- Created with matplotlib (http://matplotlib.org/) -->
<svg height="261.268212pt" version="1.1" viewBox="0 0 352.72 261.268212" width="352.72pt" xmlns="http://www.w3.org/2000/svg" xmlns:xlink="http://www.w3.org/1999/xlink">
 <defs>
  <style type="text/css">
*{stroke-linecap:butt;stroke-linejoin:round;}
  </style>
 </defs>
 <g id="figure_1">
  <g id="patch_1">
   <path d="M 0 261.268212 
L 352.72 261.268212 
L 352.72 0 
L 0 0 
z
" style="fill:#ffffff;"/>
  </g>
  <g id="axes_1">
   <g id="patch_2">
    <path d="M 10.7 241.441558 
L 329.04 241.441558 
L 329.04 30.685 
L 10.7 30.685 
z
" style="fill:#ffffff;"/>
   </g>
   <g id="matplotlib.axis_1">
    <g id="xtick_1">
     <g id="line2d_1">
      <defs>
       <path d="M 0 0 
L 0 3.5 
" id="md0b11650b1" style="stroke:#000000;stroke-width:0.8;"/>
      </defs>
      <g>
       <use style="stroke:#000000;stroke-width:0.8;" x="23.719852" xlink:href="#md0b11650b1" y="237.390087"/>
      </g>
     </g>
     <g id="text_1">
      <!-- -3 -->
      <defs>
       <path d="M 4.890625 31.390625 
L 31.203125 31.390625 
L 31.203125 23.390625 
L 4.890625 23.390625 
z
" id="DejaVuSans-2d"/>
       <path d="M 40.578125 39.3125 
Q 47.65625 37.796875 51.625 33 
Q 55.609375 28.21875 55.609375 21.1875 
Q 55.609375 10.40625 48.1875 4.484375 
Q 40.765625 -1.421875 27.09375 -1.421875 
Q 22.515625 -1.421875 17.65625 -0.515625 
Q 12.796875 0.390625 7.625 2.203125 
L 7.625 11.71875 
Q 11.71875 9.328125 16.59375 8.109375 
Q 21.484375 6.890625 26.8125 6.890625 
Q 36.078125 6.890625 40.9375 10.546875 
Q 45.796875 14.203125 45.796875 21.1875 
Q 45.796875 27.640625 41.28125 31.265625 
Q 36.765625 34.90625 28.71875 34.90625 
L 20.21875 34.90625 
L 20.21875 43.015625 
L 29.109375 43.015625 
Q 36.375 43.015625 40.234375 45.921875 
Q 44.09375 48.828125 44.09375 54.296875 
Q 44.09375 59.90625 40.109375 62.90625 
Q 36.140625 65.921875 28.71875 65.921875 
Q 24.65625 65.921875 20.015625 65.03125 
Q 15.375 64.15625 9.8125 62.3125 
L 9.8125 71.09375 
Q 15.4375 72.65625 20.34375 73.4375 
Q 25.25 74.21875 29.59375 74.21875 
Q 40.828125 74.21875 47.359375 69.109375 
Q 53.90625 64.015625 53.90625 55.328125 
Q 53.90625 49.265625 50.4375 45.09375 
Q 46.96875 40.921875 40.578125 39.3125 
z
" id="DejaVuSans-33"/>
      </defs>
      <g transform="translate(18.734696 251.988525)scale(0.1 -0.1)">
       <use xlink:href="#DejaVuSans-2d"/>
       <use x="36.083984" xlink:href="#DejaVuSans-33"/>
      </g>
     </g>
    </g>
    <g id="xtick_2">
     <g id="line2d_2">
      <g>
       <use style="stroke:#000000;stroke-width:0.8;" x="72.436568" xlink:href="#md0b11650b1" y="237.390087"/>
      </g>
     </g>
     <g id="text_2">
      <!-- -2 -->
      <defs>
       <path d="M 19.1875 8.296875 
L 53.609375 8.296875 
L 53.609375 0 
L 7.328125 0 
L 7.328125 8.296875 
Q 12.9375 14.109375 22.625 23.890625 
Q 32.328125 33.6875 34.8125 36.53125 
Q 39.546875 41.84375 41.421875 45.53125 
Q 43.3125 49.21875 43.3125 52.78125 
Q 43.3125 58.59375 39.234375 62.25 
Q 35.15625 65.921875 28.609375 65.921875 
Q 23.96875 65.921875 18.8125 64.3125 
Q 13.671875 62.703125 7.8125 59.421875 
L 7.8125 69.390625 
Q 13.765625 71.78125 18.9375 73 
Q 24.125 74.21875 28.421875 74.21875 
Q 39.75 74.21875 46.484375 68.546875 
Q 53.21875 62.890625 53.21875 53.421875 
Q 53.21875 48.921875 51.53125 44.890625 
Q 49.859375 40.875 45.40625 35.40625 
Q 44.1875 33.984375 37.640625 27.21875 
Q 31.109375 20.453125 19.1875 8.296875 
z
" id="DejaVuSans-32"/>
      </defs>
      <g transform="translate(67.451412 251.988525)scale(0.1 -0.1)">
       <use xlink:href="#DejaVuSans-2d"/>
       <use x="36.083984" xlink:href="#DejaVuSans-32"/>
      </g>
     </g>
    </g>
    <g id="xtick_3">
     <g id="line2d_3">
      <g>
       <use style="stroke:#000000;stroke-width:0.8;" x="121.153284" xlink:href="#md0b11650b1" y="237.390087"/>
      </g>
     </g>
     <g id="text_3">
      <!-- -1 -->
      <defs>
       <path d="M 12.40625 8.296875 
L 28.515625 8.296875 
L 28.515625 63.921875 
L 10.984375 60.40625 
L 10.984375 69.390625 
L 28.421875 72.90625 
L 38.28125 72.90625 
L 38.28125 8.296875 
L 54.390625 8.296875 
L 54.390625 0 
L 12.40625 0 
z
" id="DejaVuSans-31"/>
      </defs>
      <g transform="translate(116.168128 251.988525)scale(0.1 -0.1)">
       <use xlink:href="#DejaVuSans-2d"/>
       <use x="36.083984" xlink:href="#DejaVuSans-31"/>
      </g>
     </g>
    </g>
    <g id="xtick_4">
     <g id="line2d_4">
      <g>
       <use style="stroke:#000000;stroke-width:0.8;" x="169.87" xlink:href="#md0b11650b1" y="237.390087"/>
      </g>
     </g>
    </g>
    <g id="xtick_5">
     <g id="line2d_5">
      <g>
       <use style="stroke:#000000;stroke-width:0.8;" x="218.586716" xlink:href="#md0b11650b1" y="237.390087"/>
      </g>
     </g>
     <g id="text_4">
      <!-- 1 -->
      <g transform="translate(215.405466 251.988525)scale(0.1 -0.1)">
       <use xlink:href="#DejaVuSans-31"/>
      </g>
     </g>
    </g>
    <g id="xtick_6">
     <g id="line2d_6">
      <g>
       <use style="stroke:#000000;stroke-width:0.8;" x="267.303432" xlink:href="#md0b11650b1" y="237.390087"/>
      </g>
     </g>
     <g id="text_5">
      <!-- 2 -->
      <g transform="translate(264.122182 251.988525)scale(0.1 -0.1)">
       <use xlink:href="#DejaVuSans-32"/>
      </g>
     </g>
    </g>
    <g id="xtick_7">
     <g id="line2d_7">
      <g>
       <use style="stroke:#000000;stroke-width:0.8;" x="316.020148" xlink:href="#md0b11650b1" y="237.390087"/>
      </g>
     </g>
     <g id="text_6">
      <!-- 3 -->
      <g transform="translate(312.838898 251.988525)scale(0.1 -0.1)">
       <use xlink:href="#DejaVuSans-33"/>
      </g>
     </g>
    </g>
    <g id="xtick_8">
     <g id="line2d_8">
      <defs>
       <path d="M 0 0 
L 0 2 
" id="me431069f37" style="stroke:#000000;stroke-width:0.6;"/>
      </defs>
      <g>
       <use style="stroke:#000000;stroke-width:0.6;" x="13.976509" xlink:href="#me431069f37" y="237.390087"/>
      </g>
     </g>
    </g>
    <g id="xtick_9">
     <g id="line2d_9">
      <g>
       <use style="stroke:#000000;stroke-width:0.6;" x="33.463195" xlink:href="#me431069f37" y="237.390087"/>
      </g>
     </g>
    </g>
    <g id="xtick_10">
     <g id="line2d_10">
      <g>
       <use style="stroke:#000000;stroke-width:0.6;" x="43.206539" xlink:href="#me431069f37" y="237.390087"/>
      </g>
     </g>
    </g>
    <g id="xtick_11">
     <g id="line2d_11">
      <g>
       <use style="stroke:#000000;stroke-width:0.6;" x="52.949882" xlink:href="#me431069f37" y="237.390087"/>
      </g>
     </g>
    </g>
    <g id="xtick_12">
     <g id="line2d_12">
      <g>
       <use style="stroke:#000000;stroke-width:0.6;" x="62.693225" xlink:href="#me431069f37" y="237.390087"/>
      </g>
     </g>
    </g>
    <g id="xtick_13">
     <g id="line2d_13">
      <g>
       <use style="stroke:#000000;stroke-width:0.6;" x="82.179911" xlink:href="#me431069f37" y="237.390087"/>
      </g>
     </g>
    </g>
    <g id="xtick_14">
     <g id="line2d_14">
      <g>
       <use style="stroke:#000000;stroke-width:0.6;" x="91.923254" xlink:href="#me431069f37" y="237.390087"/>
      </g>
     </g>
    </g>
    <g id="xtick_15">
     <g id="line2d_15">
      <g>
       <use style="stroke:#000000;stroke-width:0.6;" x="101.666598" xlink:href="#me431069f37" y="237.390087"/>
      </g>
     </g>
    </g>
    <g id="xtick_16">
     <g id="line2d_16">
      <g>
       <use style="stroke:#000000;stroke-width:0.6;" x="111.409941" xlink:href="#me431069f37" y="237.390087"/>
      </g>
     </g>
    </g>
    <g id="xtick_17">
     <g id="line2d_17">
      <g>
       <use style="stroke:#000000;stroke-width:0.6;" x="130.896627" xlink:href="#me431069f37" y="237.390087"/>
      </g>
     </g>
    </g>
    <g id="xtick_18">
     <g id="line2d_18">
      <g>
       <use style="stroke:#000000;stroke-width:0.6;" x="140.63997" xlink:href="#me431069f37" y="237.390087"/>
      </g>
     </g>
    </g>
    <g id="xtick_19">
     <g id="line2d_19">
      <g>
       <use style="stroke:#000000;stroke-width:0.6;" x="150.383314" xlink:href="#me431069f37" y="237.390087"/>
      </g>
     </g>
    </g>
    <g id="xtick_20">
     <g id="line2d_20">
      <g>
       <use style="stroke:#000000;stroke-width:0.6;" x="160.126657" xlink:href="#me431069f37" y="237.390087"/>
      </g>
     </g>
    </g>
    <g id="xtick_21">
     <g id="line2d_21">
      <g>
       <use style="stroke:#000000;stroke-width:0.6;" x="179.613343" xlink:href="#me431069f37" y="237.390087"/>
      </g>
     </g>
    </g>
    <g id="xtick_22">
     <g id="line2d_22">
      <g>
       <use style="stroke:#000000;stroke-width:0.6;" x="189.356686" xlink:href="#me431069f37" y="237.390087"/>
      </g>
     </g>
    </g>
    <g id="xtick_23">
     <g id="line2d_23">
      <g>
       <use style="stroke:#000000;stroke-width:0.6;" x="199.10003" xlink:href="#me431069f37" y="237.390087"/>
      </g>
     </g>
    </g>
    <g id="xtick_24">
     <g id="line2d_24">
      <g>
       <use style="stroke:#000000;stroke-width:0.6;" x="208.843373" xlink:href="#me431069f37" y="237.390087"/>
      </g>
     </g>
    </g>
    <g id="xtick_25">
     <g id="line2d_25">
      <g>
       <use style="stroke:#000000;stroke-width:0.6;" x="228.330059" xlink:href="#me431069f37" y="237.390087"/>
      </g>
     </g>
    </g>
    <g id="xtick_26">
     <g id="line2d_26">
      <g>
       <use style="stroke:#000000;stroke-width:0.6;" x="238.073402" xlink:href="#me431069f37" y="237.390087"/>
      </g>
     </g>
    </g>
    <g id="xtick_27">
     <g id="line2d_27">
      <g>
       <use style="stroke:#000000;stroke-width:0.6;" x="247.816746" xlink:href="#me431069f37" y="237.390087"/>
      </g>
     </g>
    </g>
    <g id="xtick_28">
     <g id="line2d_28">
      <g>
       <use style="stroke:#000000;stroke-width:0.6;" x="257.560089" xlink:href="#me431069f37" y="237.390087"/>
      </g>
     </g>
    </g>
    <g id="xtick_29">
     <g id="line2d_29">
      <g>
       <use style="stroke:#000000;stroke-width:0.6;" x="277.046775" xlink:href="#me431069f37" y="237.390087"/>
      </g>
     </g>
    </g>
    <g id="xtick_30">
     <g id="line2d_30">
      <g>
       <use style="stroke:#000000;stroke-width:0.6;" x="286.790118" xlink:href="#me431069f37" y="237.390087"/>
      </g>
     </g>
    </g>
    <g id="xtick_31">
     <g id="line2d_31">
      <g>
       <use style="stroke:#000000;stroke-width:0.6;" x="296.533461" xlink:href="#me431069f37" y="237.390087"/>
      </g>
     </g>
    </g>
    <g id="xtick_32">
     <g id="line2d_32">
      <g>
       <use style="stroke:#000000;stroke-width:0.6;" x="306.276805" xlink:href="#me431069f37" y="237.390087"/>
      </g>
     </g>
    </g>
    <g id="xtick_33">
     <g id="line2d_33">
      <g>
       <use style="stroke:#000000;stroke-width:0.6;" x="325.763491" xlink:href="#me431069f37" y="237.390087"/>
      </g>
     </g>
    </g>
    <g id="text_7">
     <!-- $k$ -->
     <defs>
      <path d="M 5.328125 1.8125 
Q 5.328125 2.390625 5.421875 2.6875 
L 19.921875 60.5 
Q 20.3125 62.203125 20.40625 63.1875 
Q 20.40625 64.796875 13.921875 64.796875 
Q 12.890625 64.796875 12.890625 66.109375 
Q 12.9375 66.359375 13.109375 66.984375 
Q 13.28125 67.625 13.546875 67.96875 
Q 13.8125 68.3125 14.3125 68.3125 
L 27.78125 69.390625 
L 28.078125 69.390625 
Q 28.078125 69.28125 28.421875 69.109375 
Q 28.765625 68.953125 28.8125 68.890625 
Q 29 68.40625 29 68.109375 
L 18.5 26.3125 
Q 22.125 27.828125 27.609375 33.515625 
Q 33.109375 39.203125 36.203125 41.6875 
Q 39.3125 44.1875 44 44.1875 
Q 46.78125 44.1875 48.734375 42.28125 
Q 50.6875 40.375 50.6875 37.59375 
Q 50.6875 35.84375 49.953125 34.34375 
Q 49.21875 32.859375 47.890625 31.921875 
Q 46.578125 31 44.828125 31 
Q 43.21875 31 42.109375 32 
Q 41.015625 33.015625 41.015625 34.625 
Q 41.015625 37.015625 42.703125 38.640625 
Q 44.390625 40.28125 46.78125 40.28125 
Q 45.796875 41.609375 43.796875 41.609375 
Q 40.828125 41.609375 38.0625 39.890625 
Q 35.296875 38.1875 32.09375 34.984375 
Q 28.90625 31.78125 26.265625 29.125 
Q 23.640625 26.46875 21.390625 25.09375 
Q 27.296875 24.421875 31.640625 22 
Q 35.984375 19.578125 35.984375 14.59375 
Q 35.984375 13.578125 35.59375 12.015625 
Q 34.71875 8.25 34.71875 6 
Q 34.71875 1.515625 37.796875 1.515625 
Q 41.40625 1.515625 43.28125 5.46875 
Q 45.171875 9.421875 46.390625 14.703125 
Q 46.578125 15.28125 47.21875 15.28125 
L 48.390625 15.28125 
Q 48.78125 15.28125 49.046875 15.03125 
Q 49.3125 14.796875 49.3125 14.40625 
Q 49.3125 14.3125 49.21875 14.109375 
Q 45.453125 -1.125 37.59375 -1.125 
Q 34.765625 -1.125 32.59375 0.1875 
Q 30.421875 1.515625 29.25 3.78125 
Q 28.078125 6.0625 28.078125 8.890625 
Q 28.078125 10.5 28.515625 12.203125 
Q 28.8125 13.375 28.8125 14.40625 
Q 28.8125 18.265625 25.390625 20.265625 
Q 21.96875 22.265625 17.578125 22.703125 
L 12.5 2.296875 
Q 12.109375 0.78125 10.984375 -0.171875 
Q 9.859375 -1.125 8.40625 -1.125 
Q 7.125 -1.125 6.21875 -0.265625 
Q 5.328125 0.59375 5.328125 1.8125 
z
" id="Cmmi10-6b"/>
     </defs>
     <g transform="translate(337.04 237.390087)scale(0.16 -0.16)">
      <use transform="translate(0 0.609375)" xlink:href="#Cmmi10-6b"/>
     </g>
    </g>
   </g>
   <g id="matplotlib.axis_2">
    <g id="ytick_1">
     <g id="line2d_34">
      <defs>
       <path d="M 0 0 
L -3.5 0 
" id="m64c3afa27e" style="stroke:#000000;stroke-width:0.8;"/>
      </defs>
      <g>
       <use style="stroke:#000000;stroke-width:0.8;" x="169.87" xlink:href="#m64c3afa27e" y="237.390087"/>
      </g>
     </g>
    </g>
    <g id="ytick_2">
     <g id="line2d_35">
      <g>
       <use style="stroke:#000000;stroke-width:0.8;" x="169.87" xlink:href="#m64c3afa27e" y="186.727068"/>
      </g>
     </g>
     <g id="text_8">
      <!-- 0.5 -->
      <defs>
       <path d="M 31.78125 66.40625 
Q 24.171875 66.40625 20.328125 58.90625 
Q 16.5 51.421875 16.5 36.375 
Q 16.5 21.390625 20.328125 13.890625 
Q 24.171875 6.390625 31.78125 6.390625 
Q 39.453125 6.390625 43.28125 13.890625 
Q 47.125 21.390625 47.125 36.375 
Q 47.125 51.421875 43.28125 58.90625 
Q 39.453125 66.40625 31.78125 66.40625 
z
M 31.78125 74.21875 
Q 44.046875 74.21875 50.515625 64.515625 
Q 56.984375 54.828125 56.984375 36.375 
Q 56.984375 17.96875 50.515625 8.265625 
Q 44.046875 -1.421875 31.78125 -1.421875 
Q 19.53125 -1.421875 13.0625 8.265625 
Q 6.59375 17.96875 6.59375 36.375 
Q 6.59375 54.828125 13.0625 64.515625 
Q 19.53125 74.21875 31.78125 74.21875 
z
" id="DejaVuSans-30"/>
       <path d="M 10.6875 12.40625 
L 21 12.40625 
L 21 0 
L 10.6875 0 
z
" id="DejaVuSans-2e"/>
       <path d="M 10.796875 72.90625 
L 49.515625 72.90625 
L 49.515625 64.59375 
L 19.828125 64.59375 
L 19.828125 46.734375 
Q 21.96875 47.46875 24.109375 47.828125 
Q 26.265625 48.1875 28.421875 48.1875 
Q 40.625 48.1875 47.75 41.5 
Q 54.890625 34.8125 54.890625 23.390625 
Q 54.890625 11.625 47.5625 5.09375 
Q 40.234375 -1.421875 26.90625 -1.421875 
Q 22.3125 -1.421875 17.546875 -0.640625 
Q 12.796875 0.140625 7.71875 1.703125 
L 7.71875 11.625 
Q 12.109375 9.234375 16.796875 8.0625 
Q 21.484375 6.890625 26.703125 6.890625 
Q 35.15625 6.890625 40.078125 11.328125 
Q 45.015625 15.765625 45.015625 23.390625 
Q 45.015625 31 40.078125 35.4375 
Q 35.15625 39.890625 26.703125 39.890625 
Q 22.75 39.890625 18.8125 39.015625 
Q 14.890625 38.140625 10.796875 36.28125 
z
" id="DejaVuSans-35"/>
      </defs>
      <g transform="translate(146.966875 190.526287)scale(0.1 -0.1)">
       <use xlink:href="#DejaVuSans-30"/>
       <use x="63.623047" xlink:href="#DejaVuSans-2e"/>
       <use x="95.410156" xlink:href="#DejaVuSans-35"/>
      </g>
     </g>
    </g>
    <g id="ytick_3">
     <g id="line2d_36">
      <g>
       <use style="stroke:#000000;stroke-width:0.8;" x="169.87" xlink:href="#m64c3afa27e" y="136.064049"/>
      </g>
     </g>
     <g id="text_9">
      <!-- 1 -->
      <g transform="translate(156.5075 139.863268)scale(0.1 -0.1)">
       <use xlink:href="#DejaVuSans-31"/>
      </g>
     </g>
    </g>
    <g id="ytick_4">
     <g id="line2d_37">
      <g>
       <use style="stroke:#000000;stroke-width:0.8;" x="169.87" xlink:href="#m64c3afa27e" y="85.40103"/>
      </g>
     </g>
     <g id="text_10">
      <!-- 1.5 -->
      <g transform="translate(146.966875 89.200249)scale(0.1 -0.1)">
       <use xlink:href="#DejaVuSans-31"/>
       <use x="63.623047" xlink:href="#DejaVuSans-2e"/>
       <use x="95.410156" xlink:href="#DejaVuSans-35"/>
      </g>
     </g>
    </g>
    <g id="ytick_5">
     <g id="line2d_38">
      <g>
       <use style="stroke:#000000;stroke-width:0.8;" x="169.87" xlink:href="#m64c3afa27e" y="34.738011"/>
      </g>
     </g>
     <g id="text_11">
      <!-- 2 -->
      <g transform="translate(156.5075 38.537229)scale(0.1 -0.1)">
       <use xlink:href="#DejaVuSans-32"/>
      </g>
     </g>
    </g>
    <g id="ytick_6">
     <g id="line2d_39">
      <defs>
       <path d="M 0 0 
L -2 0 
" id="m8d8e88fceb" style="stroke:#000000;stroke-width:0.6;"/>
      </defs>
      <g>
       <use style="stroke:#000000;stroke-width:0.6;" x="169.87" xlink:href="#m8d8e88fceb" y="227.257483"/>
      </g>
     </g>
    </g>
    <g id="ytick_7">
     <g id="line2d_40">
      <g>
       <use style="stroke:#000000;stroke-width:0.6;" x="169.87" xlink:href="#m8d8e88fceb" y="217.124879"/>
      </g>
     </g>
    </g>
    <g id="ytick_8">
     <g id="line2d_41">
      <g>
       <use style="stroke:#000000;stroke-width:0.6;" x="169.87" xlink:href="#m8d8e88fceb" y="206.992276"/>
      </g>
     </g>
    </g>
    <g id="ytick_9">
     <g id="line2d_42">
      <g>
       <use style="stroke:#000000;stroke-width:0.6;" x="169.87" xlink:href="#m8d8e88fceb" y="196.859672"/>
      </g>
     </g>
    </g>
    <g id="ytick_10">
     <g id="line2d_43">
      <g>
       <use style="stroke:#000000;stroke-width:0.6;" x="169.87" xlink:href="#m8d8e88fceb" y="176.594464"/>
      </g>
     </g>
    </g>
    <g id="ytick_11">
     <g id="line2d_44">
      <g>
       <use style="stroke:#000000;stroke-width:0.6;" x="169.87" xlink:href="#m8d8e88fceb" y="166.46186"/>
      </g>
     </g>
    </g>
    <g id="ytick_12">
     <g id="line2d_45">
      <g>
       <use style="stroke:#000000;stroke-width:0.6;" x="169.87" xlink:href="#m8d8e88fceb" y="156.329257"/>
      </g>
     </g>
    </g>
    <g id="ytick_13">
     <g id="line2d_46">
      <g>
       <use style="stroke:#000000;stroke-width:0.6;" x="169.87" xlink:href="#m8d8e88fceb" y="146.196653"/>
      </g>
     </g>
    </g>
    <g id="ytick_14">
     <g id="line2d_47">
      <g>
       <use style="stroke:#000000;stroke-width:0.6;" x="169.87" xlink:href="#m8d8e88fceb" y="125.931445"/>
      </g>
     </g>
    </g>
    <g id="ytick_15">
     <g id="line2d_48">
      <g>
       <use style="stroke:#000000;stroke-width:0.6;" x="169.87" xlink:href="#m8d8e88fceb" y="115.798841"/>
      </g>
     </g>
    </g>
    <g id="ytick_16">
     <g id="line2d_49">
      <g>
       <use style="stroke:#000000;stroke-width:0.6;" x="169.87" xlink:href="#m8d8e88fceb" y="105.666237"/>
      </g>
     </g>
    </g>
    <g id="ytick_17">
     <g id="line2d_50">
      <g>
       <use style="stroke:#000000;stroke-width:0.6;" x="169.87" xlink:href="#m8d8e88fceb" y="95.533634"/>
      </g>
     </g>
    </g>
    <g id="ytick_18">
     <g id="line2d_51">
      <g>
       <use style="stroke:#000000;stroke-width:0.6;" x="169.87" xlink:href="#m8d8e88fceb" y="75.268426"/>
      </g>
     </g>
    </g>
    <g id="ytick_19">
     <g id="line2d_52">
      <g>
       <use style="stroke:#000000;stroke-width:0.6;" x="169.87" xlink:href="#m8d8e88fceb" y="65.135822"/>
      </g>
     </g>
    </g>
    <g id="ytick_20">
     <g id="line2d_53">
      <g>
       <use style="stroke:#000000;stroke-width:0.6;" x="169.87" xlink:href="#m8d8e88fceb" y="55.003218"/>
      </g>
     </g>
    </g>
    <g id="ytick_21">
     <g id="line2d_54">
      <g>
       <use style="stroke:#000000;stroke-width:0.6;" x="169.87" xlink:href="#m8d8e88fceb" y="44.870615"/>
      </g>
     </g>
    </g>
    <g id="text_12">
     <!-- $E_k$ -->
     <defs>
      <path d="M 4.6875 0 
Q 3.71875 0 3.71875 1.3125 
Q 3.765625 1.5625 3.90625 2.171875 
Q 4.046875 2.78125 4.3125 3.140625 
Q 4.59375 3.515625 4.984375 3.515625 
Q 11.078125 3.515625 13.484375 4.203125 
Q 14.796875 4.640625 15.375 6.890625 
L 29.109375 61.8125 
Q 29.296875 62.796875 29.296875 63.1875 
Q 29.296875 64.265625 28.078125 64.40625 
Q 26.21875 64.796875 20.90625 64.796875 
Q 19.921875 64.796875 19.921875 66.109375 
Q 19.96875 66.359375 20.109375 66.96875 
Q 20.265625 67.578125 20.53125 67.9375 
Q 20.796875 68.3125 21.1875 68.3125 
L 75.390625 68.3125 
Q 76.421875 68.3125 76.421875 67 
L 74.03125 46.296875 
Q 74.03125 46.046875 73.65625 45.71875 
Q 73.296875 45.40625 73 45.40625 
L 72.125 45.40625 
Q 71.09375 45.40625 71.09375 46.6875 
Q 71.6875 51.5625 71.6875 53.90625 
Q 71.6875 57.90625 70.3125 60.125 
Q 68.953125 62.359375 66.671875 63.328125 
Q 64.40625 64.3125 61.640625 64.546875 
Q 58.890625 64.796875 54.390625 64.796875 
L 43.015625 64.796875 
Q 40.28125 64.796875 39.40625 64.328125 
Q 38.53125 63.875 37.796875 61.375 
L 31.78125 37.203125 
L 39.59375 37.203125 
Q 44.671875 37.203125 47.265625 37.90625 
Q 49.859375 38.625 51.359375 40.859375 
Q 52.875 43.109375 54.109375 48 
Q 54.203125 48.34375 54.46875 48.609375 
Q 54.734375 48.875 55.078125 48.875 
L 56 48.875 
Q 56.984375 48.875 56.984375 47.609375 
L 50.78125 22.90625 
Q 50.59375 22.015625 49.8125 22.015625 
L 48.875 22.015625 
Q 47.90625 22.015625 47.90625 23.296875 
Q 48.875 27.296875 48.875 29.203125 
Q 48.875 32.125 46.234375 32.90625 
Q 43.609375 33.6875 39.203125 33.6875 
L 30.90625 33.6875 
L 24.125 6.5 
Q 23.6875 5.28125 23.6875 4.296875 
Q 23.6875 3.515625 27.09375 3.515625 
L 39.203125 3.515625 
Q 46.4375 3.515625 50.921875 4.640625 
Q 55.421875 5.765625 58.375 8.21875 
Q 61.328125 10.6875 63.46875 14.5 
Q 65.625 18.3125 68.703125 25.59375 
Q 68.890625 26.21875 69.578125 26.21875 
L 70.515625 26.21875 
Q 70.90625 26.21875 71.1875 25.875 
Q 71.484375 25.53125 71.484375 25.09375 
Q 71.484375 24.90625 71.390625 24.703125 
L 61.078125 0.59375 
Q 60.890625 0 60.296875 0 
z
" id="Cmmi10-45"/>
     </defs>
     <g transform="translate(160.51 19.3575)scale(0.16 -0.16)">
      <use transform="translate(0 0.6875)" xlink:href="#Cmmi10-45"/>
      <use transform="translate(73.779297 -16.31875)scale(0.7)" xlink:href="#Cmmi10-6b"/>
     </g>
    </g>
   </g>
   <g id="line2d_55">
    <path clip-path="url(#p617337de68)" d="M 16.821923 34.738011 
L 17.697272 34.754367 
L 21.329732 35.171478 
L 24.526798 36.002633 
L 27.00534 36.943679 
L 28.455146 37.613227 
L 30.905408 38.942649 
L 33.034644 40.2975 
L 36.726918 43.078834 
L 40.054908 46.043734 
L 43.053742 49.075507 
L 45.393279 51.670181 
L 48.910162 55.934711 
L 52.377049 60.547277 
L 56.425455 66.415615 
L 59.631844 71.406649 
L 63.758034 78.238239 
L 69.578122 88.567167 
L 74.021783 96.917369 
L 77.635065 103.950392 
L 85.45626 119.725875 
L 108.528535 167.133627 
L 115.222516 180.051274 
L 120.427447 189.534367 
L 124.759505 196.96658 
L 129.488482 204.528388 
L 131.708862 207.860592 
L 134.599504 211.974244 
L 137.615809 215.98166 
L 141.053954 220.175195 
L 144.135084 223.578053 
L 147.352856 226.758058 
L 150.701451 229.647194 
L 153.581724 231.779145 
L 156.400391 233.541719 
L 158.858006 234.812478 
L 161.885946 236.032369 
L 163.740458 236.589114 
L 165.882376 237.050836 
L 168.714514 237.361587 
L 171.519652 237.332 
L 174.181678 236.993495 
L 176.754935 236.379877 
L 179.419 235.449827 
L 180.991216 234.761316 
L 184.131898 233.07901 
L 185.646098 232.123423 
L 188.589835 230.001036 
L 190.924151 228.073854 
L 194.653188 224.559014 
L 198.191476 220.744439 
L 201.821099 216.367653 
L 205.091808 212.041283 
L 208.542792 207.105709 
L 212.867229 200.421016 
L 216.049291 195.175434 
L 219.124711 189.865835 
L 225.133675 178.893232 
L 230.63844 168.265874 
L 237.891757 153.658333 
L 251.746825 124.953162 
L 260.510026 107.113281 
L 266.123431 96.141366 
L 271.992141 85.238842 
L 276.492753 77.369039 
L 280.857972 70.213595 
L 285.106546 63.756253 
L 288.72217 58.691992 
L 292.22026 54.197526 
L 296.480725 49.2955 
L 299.496732 46.22424 
L 302.316555 43.663908 
L 305.242419 41.334558 
L 307.413975 39.826157 
L 310.99978 37.755157 
L 313.302118 36.705488 
L 314.477956 36.254872 
L 316.809205 35.533598 
L 318.338489 35.185382 
L 320.96353 34.81955 
L 322.918077 34.738011 
L 322.918077 34.738011 
" style="fill:none;stroke:#0000ff;stroke-linecap:square;"/>
   </g>
   <g id="patch_3">
    <path d="M 169.87 241.441558 
L 169.87 30.685 
" style="fill:none;stroke:#000000;stroke-linecap:square;stroke-linejoin:miter;stroke-width:0.8;"/>
   </g>
   <g id="patch_4">
    <path d="M 10.7 237.390087 
L 329.04 237.390087 
" style="fill:none;stroke:#000000;stroke-linecap:square;stroke-linejoin:miter;stroke-width:0.8;"/>
   </g>
  </g>
 </g>
 <defs>
  <clipPath id="p617337de68">
   <rect height="210.756558" width="318.34" x="10.7" y="30.685"/>
  </clipPath>
 </defs>
</svg>
